<?xml version="1.0" encoding="UTF-8"?>
<svg width="320" height="320" viewBox="0 0 320 320" xmlns="http://www.w3.org/2000/svg">
    <path fill="currentColor" stroke="currentColor" d="M 306.674438 190.015961 C 297.183746 192.25058 283.958313 195.364044 273.407715 197.845169 C 271.622803 203.184662 269.4646 208.391937 266.949097 213.428467 C 272.655853 222.641953 279.804626 234.198395 284.944427 242.493546 C 288.864014 248.831421 289.480286 255.375122 282.010925 262.845612 L 262.844574 282.016937 C 255.375366 289.487457 248.830414 288.865021 242.495209 284.941803 C 234.199951 279.806915 222.638565 272.653107 213.431366 266.946411 C 208.393402 269.464661 203.183014 271.62207 197.839447 273.402557 C 195.362015 283.949585 192.256104 297.17865 190.012787 306.674377 C 188.311813 313.93042 184.121078 319 173.558151 319 L 146.441879 319 C 135.878906 319 131.688187 313.932892 129.987213 306.674377 C 127.743904 297.183624 124.637985 283.949585 122.160522 273.402557 C 116.816994 271.62207 111.606606 269.464661 106.568642 266.946411 C 97.36145 272.649414 85.800072 279.803223 77.504814 284.941803 C 71.169601 288.865021 64.624649 289.487457 57.155418 282.016937 L 37.989086 262.845612 C 30.519701 255.375122 31.135986 248.831421 35.055595 242.493546 C 40.195408 234.198395 47.34417 222.641953 53.050896 213.428467 C 50.535378 208.391937 48.377209 203.184662 46.592316 197.845169 C 36.041691 195.364044 22.81629 192.25058 13.325581 190.015961 C 6.065799 188.308853 1 184.121857 1 173.557571 L 1 146.442398 C 1 135.878143 6.065799 131.691086 13.325581 129.983963 C 22.81629 127.749359 36.041691 124.63591 46.592316 122.154755 C 48.377209 116.815338 50.535378 111.608063 53.050896 106.571411 C 47.34417 97.358093 40.195408 85.80159 35.055595 77.506393 C 31.135986 71.168594 30.519701 64.624878 37.989086 57.154358 L 57.155418 37.983063 C 64.624649 30.512451 71.169601 31.134888 77.504814 35.058197 C 85.800072 40.193024 97.36145 47.346802 106.568642 53.053589 C 111.606606 50.535339 116.816994 48.377838 122.160522 46.597443 C 124.637985 36.050415 127.743904 22.821259 129.987213 13.325623 C 131.688187 6.069489 135.878906 1 146.441879 1 L 173.558151 1 C 184.121078 1 188.311813 6.067078 190.012787 13.325623 C 192.256104 22.816406 195.362015 36.050415 197.839447 46.597443 C 203.183014 48.377838 208.393402 50.535339 213.431366 53.053589 C 222.638565 47.350494 234.199951 40.196777 242.495209 35.058197 C 248.830414 31.134888 255.375366 30.512451 262.844574 37.983063 L 282.010925 57.154358 C 289.480286 64.624878 288.864014 71.168594 284.944427 77.506393 C 279.804626 85.80159 272.655853 97.358093 266.949097 106.571411 C 269.4646 111.608063 271.622803 116.815338 273.407715 122.154755 C 283.958313 124.63591 297.183746 127.749359 306.674438 129.983963 C 313.934204 131.691086 319 135.878143 319 146.442398 L 319 173.558792 C 319 184.121857 313.934204 188.308853 306.674438 190.015961 Z M 160 98.372437 C 125.963821 98.372437 98.372101 125.964294 98.372101 160.000626 C 98.372101 194.036926 125.963821 221.628723 160 221.628723 C 194.036179 221.628723 221.627899 194.036926 221.627899 160.000626 C 221.627899 125.964294 194.036179 98.372437 160 98.372437 Z"/>
</svg>
